<!DOCTYPE svg PUBLIC "-//W3C//DTD SVG 1.1//EN" "http://www.w3.org/Graphics/SVG/1.1/DTD/svg11.dtd">
<!-- Uploaded to: SVG Repo, www.svgrepo.com, Transformed by: SVG Repo Mixer Tools -->
<svg width="175px" height="175px" viewBox="-4.96 -4.96 25.92 25.92" xmlns="http://www.w3.org/2000/svg" fill="#163c2f" class="bi bi-kanban-fill" stroke="#163c2f" stroke-width="0.00016" transform="rotate(0)">
<g id="SVGRepo_bgCarrier" stroke-width="0" transform="translate(0,0), scale(1)">
<rect x="-4.96" y="-4.96" width="25.92" height="25.92" rx="12.96" fill="#3D9578" strokewidth="0"/>
</g>
<g id="SVGRepo_tracerCarrier" stroke-linecap="round" stroke-linejoin="round" stroke="#CCCCCC" stroke-width="0.256"> <path d="M2.5 0a2 2 0 0 0-2 2v12a2 2 0 0 0 2 2h11a2 2 0 0 0 2-2V2a2 2 0 0 0-2-2h-11zm5 2h1a1 1 0 0 1 1 1v3a1 1 0 0 1-1 1h-1a1 1 0 0 1-1-1V3a1 1 0 0 1 1-1zm-5 1a1 1 0 0 1 1-1h1a1 1 0 0 1 1 1v7a1 1 0 0 1-1 1h-1a1 1 0 0 1-1-1V3zm9-1h1a1 1 0 0 1 1 1v10a1 1 0 0 1-1 1h-1a1 1 0 0 1-1-1V3a1 1 0 0 1 1-1z"/> </g>
<g id="SVGRepo_iconCarrier"> <path d="M2.5 0a2 2 0 0 0-2 2v12a2 2 0 0 0 2 2h11a2 2 0 0 0 2-2V2a2 2 0 0 0-2-2h-11zm5 2h1a1 1 0 0 1 1 1v3a1 1 0 0 1-1 1h-1a1 1 0 0 1-1-1V3a1 1 0 0 1 1-1zm-5 1a1 1 0 0 1 1-1h1a1 1 0 0 1 1 1v7a1 1 0 0 1-1 1h-1a1 1 0 0 1-1-1V3zm9-1h1a1 1 0 0 1 1 1v10a1 1 0 0 1-1 1h-1a1 1 0 0 1-1-1V3a1 1 0 0 1 1-1z"/> </g>
</svg>